<mxfile host="app.diagrams.net" agent="Mozilla/5.0 (Windows NT 10.0; Win64; x64) AppleWebKit/537.36 (KHTML, like Gecko) Chrome/127.0.0.0 Safari/537.36" version="24.7.7">
  <diagram name="第 1 页" id="9CQ-6mCoUFSTk-PFTUSJ">
    <mxGraphModel dx="1221" dy="725" grid="1" gridSize="10" guides="1" tooltips="1" connect="1" arrows="1" fold="1" page="1" pageScale="1" pageWidth="827" pageHeight="1169" math="0" shadow="0">
      <root>
        <mxCell id="0" />
        <mxCell id="1" parent="0" />
        <mxCell id="Heg1Zc8AY9hbEdoVA6y8-10" style="rounded=0;orthogonalLoop=1;jettySize=auto;html=1;exitX=0.855;exitY=0;exitDx=0;exitDy=4.35;exitPerimeter=0;entryX=1;entryY=0.5;entryDx=0;entryDy=0;" edge="1" parent="1" source="Heg1Zc8AY9hbEdoVA6y8-1" target="Heg1Zc8AY9hbEdoVA6y8-3">
          <mxGeometry relative="1" as="geometry" />
        </mxCell>
        <mxCell id="Heg1Zc8AY9hbEdoVA6y8-11" style="edgeStyle=orthogonalEdgeStyle;rounded=0;orthogonalLoop=1;jettySize=auto;html=1;exitX=0.5;exitY=0;exitDx=0;exitDy=0;exitPerimeter=0;" edge="1" parent="1" source="Heg1Zc8AY9hbEdoVA6y8-1" target="Heg1Zc8AY9hbEdoVA6y8-5">
          <mxGeometry relative="1" as="geometry" />
        </mxCell>
        <mxCell id="Heg1Zc8AY9hbEdoVA6y8-12" style="rounded=0;orthogonalLoop=1;jettySize=auto;html=1;exitX=0.145;exitY=0;exitDx=0;exitDy=4.35;exitPerimeter=0;entryX=1;entryY=0.5;entryDx=0;entryDy=0;" edge="1" parent="1" source="Heg1Zc8AY9hbEdoVA6y8-1" target="Heg1Zc8AY9hbEdoVA6y8-6">
          <mxGeometry relative="1" as="geometry" />
        </mxCell>
        <mxCell id="Heg1Zc8AY9hbEdoVA6y8-1" value="" style="shape=cylinder3;whiteSpace=wrap;html=1;boundedLbl=1;backgroundOutline=1;size=15;rotation=-90;" vertex="1" parent="1">
          <mxGeometry x="385" y="325" width="60" height="90" as="geometry" />
        </mxCell>
        <mxCell id="Heg1Zc8AY9hbEdoVA6y8-13" style="rounded=0;orthogonalLoop=1;jettySize=auto;html=1;exitX=0.145;exitY=1;exitDx=0;exitDy=-4.35;entryX=0;entryY=0.5;entryDx=0;entryDy=0;exitPerimeter=0;" edge="1" parent="1" source="Heg1Zc8AY9hbEdoVA6y8-1" target="Heg1Zc8AY9hbEdoVA6y8-9">
          <mxGeometry relative="1" as="geometry" />
        </mxCell>
        <mxCell id="Heg1Zc8AY9hbEdoVA6y8-14" style="edgeStyle=orthogonalEdgeStyle;rounded=0;orthogonalLoop=1;jettySize=auto;html=1;exitX=1;exitY=0.5;exitDx=0;exitDy=0;" edge="1" parent="1" source="Heg1Zc8AY9hbEdoVA6y8-2" target="Heg1Zc8AY9hbEdoVA6y8-8">
          <mxGeometry relative="1" as="geometry" />
        </mxCell>
        <mxCell id="Heg1Zc8AY9hbEdoVA6y8-15" style="rounded=0;orthogonalLoop=1;jettySize=auto;html=1;exitX=0.855;exitY=1;exitDx=0;exitDy=-4.35;entryX=0;entryY=0.5;entryDx=0;entryDy=0;exitPerimeter=0;" edge="1" parent="1" source="Heg1Zc8AY9hbEdoVA6y8-1" target="Heg1Zc8AY9hbEdoVA6y8-7">
          <mxGeometry relative="1" as="geometry" />
        </mxCell>
        <mxCell id="Heg1Zc8AY9hbEdoVA6y8-2" value="场景管理" style="text;html=1;align=center;verticalAlign=middle;whiteSpace=wrap;rounded=0;" vertex="1" parent="1">
          <mxGeometry x="400" y="355" width="60" height="30" as="geometry" />
        </mxCell>
        <mxCell id="Heg1Zc8AY9hbEdoVA6y8-3" value="场景创建" style="rounded=0;whiteSpace=wrap;html=1;" vertex="1" parent="1">
          <mxGeometry x="230" y="240" width="100" height="60" as="geometry" />
        </mxCell>
        <mxCell id="Heg1Zc8AY9hbEdoVA6y8-4" value="场景编辑" style="rounded=0;whiteSpace=wrap;html=1;" vertex="1" parent="1">
          <mxGeometry x="160" y="340" width="100" height="60" as="geometry" />
        </mxCell>
        <mxCell id="Heg1Zc8AY9hbEdoVA6y8-5" value="场景编辑" style="rounded=0;whiteSpace=wrap;html=1;" vertex="1" parent="1">
          <mxGeometry x="160" y="340" width="100" height="60" as="geometry" />
        </mxCell>
        <mxCell id="Heg1Zc8AY9hbEdoVA6y8-6" value="图层管理" style="rounded=0;whiteSpace=wrap;html=1;" vertex="1" parent="1">
          <mxGeometry x="230" y="440" width="100" height="60" as="geometry" />
        </mxCell>
        <mxCell id="Heg1Zc8AY9hbEdoVA6y8-7" value="三维陆地环境构建" style="rounded=0;whiteSpace=wrap;html=1;" vertex="1" parent="1">
          <mxGeometry x="490" y="240" width="100" height="60" as="geometry" />
        </mxCell>
        <mxCell id="Heg1Zc8AY9hbEdoVA6y8-8" value="三维陆地环境管理" style="rounded=0;whiteSpace=wrap;html=1;" vertex="1" parent="1">
          <mxGeometry x="570" y="340" width="100" height="60" as="geometry" />
        </mxCell>
        <mxCell id="Heg1Zc8AY9hbEdoVA6y8-9" value="图层配置编辑" style="rounded=0;whiteSpace=wrap;html=1;" vertex="1" parent="1">
          <mxGeometry x="490" y="440" width="100" height="60" as="geometry" />
        </mxCell>
      </root>
    </mxGraphModel>
  </diagram>
</mxfile>
